<svg width="36" height="36" viewBox="0 0 36 36" fill="none" xmlns="http://www.w3.org/2000/svg">
<path d="M8.55301 34.451C11.0261 34.451 13.031 32.4461 13.031 29.973C13.031 27.4999 11.0261 25.495 8.55301 25.495C6.07988 25.495 4.07501 27.4999 4.07501 29.973C4.07501 32.4461 6.07988 34.451 8.55301 34.451Z" fill="#66757F"/>
<path d="M10.482 34.451C15.772 36.451 27.482 35.451 30.482 33.451C33.482 31.451 36.14 29.397 35.482 25.451C34.482 19.451 26.482 18.451 21.482 19.451C16.579 20.432 12.482 23.451 11.482 25.451C10.85 26.716 11.482 28.451 11.482 30.451C11.482 33.451 9.546 34.097 10.482 34.451Z" fill="#CCD6DD"/>
<path d="M30.482 33.451C33.482 31.451 36.14 29.397 35.482 25.451L35.477 25.431C32.868 26.924 28.653 28.866 23.168 29.801C18.569 30.585 14.23 30.662 11.476 30.599C11.412 33.468 9.563 34.104 10.482 34.451C15.772 36.451 27.482 35.451 30.482 33.451Z" fill="#99AAB5"/>
<path d="M8.489 12.209C9.82553 12.209 10.909 11.1255 10.909 9.78902C10.909 8.45249 9.82553 7.36902 8.489 7.36902C7.15247 7.36902 6.069 8.45249 6.069 9.78902C6.069 11.1255 7.15247 12.209 8.489 12.209Z" fill="#66757F"/>
<path d="M2.495 31.311C-1.431 25.702 1.048 18.621 3.081 14.064C4.64 10.569 6.106 9.36804 6.106 9.36804L10.663 11.401C10.663 11.401 8.939 16.046 9.471 19.638C10.032 23.424 10.698 26.614 8.875 29.979C7.052 33.344 3.476 32.713 2.495 31.311Z" fill="#99AAB5"/>
<path d="M7.95199 10.192L10.663 11.402C10.663 11.402 8.93899 16.047 9.47099 19.639C10.032 23.425 10.698 26.615 8.87499 29.98C8.12099 31.372 7.06699 32.08 6.01999 32.333C1.58399 22.547 7.95199 10.192 7.95199 10.192Z" fill="#CCD6DD"/>
<path d="M6.31601 8.17594C6.73701 5.79194 10.172 0.25394 11.364 0.46394C12.556 0.673939 18.304 2.91794 19.286 4.31994C20.268 5.72194 18.234 10.2789 17.042 10.0689C15.85 9.85894 16.271 7.47494 16.271 7.47494C16.271 7.47494 16.481 6.28294 15.079 7.26494L12.275 9.22794C10.873 10.2099 6.31601 8.17594 6.31601 8.17594Z" fill="#99AAB5"/>
<path d="M6.31601 8.17603C5.33501 6.77403 5.96601 3.19803 6.17601 2.00703C6.38601 0.815027 8.77001 1.23603 8.34901 3.62003C7.92901 6.00303 9.12001 6.21403 9.12001 6.21403L6.31601 8.17603Z" fill="#99AAB5"/>
<path d="M6.31601 8.17594C6.73701 5.79194 10.172 0.25394 11.364 0.46394C12.556 0.673939 18.304 2.91794 19.286 4.31994C13.537 2.07594 11.504 6.63294 11.094 9.49394C9.20801 9.46694 6.31601 8.17594 6.31601 8.17594Z" fill="#CCD6DD"/>
</svg>
