<svg width="24" height="24" viewBox="0 0 24 24" fill="none" xmlns="http://www.w3.org/2000/svg">
<path d="M4 6.66675L6 22.0001C6 23.1047 8.686 24.0001 12 24.0001C15.314 24.0001 18 23.1047 18 22.0001L20 6.66675H4Z" fill="#8899A6"/>
<path d="M4.66666 6.66675L6.66666 21.7627C6.66666 22.5914 9.05466 23.2627 12 23.2627C14.9453 23.2627 17.3333 22.5914 17.3333 21.7627L19.3333 6.66675H4.66666Z" fill="#D3A471"/>
<path d="M18.504 13.0254L19.3333 6.66675H4.66666L5.49599 13.0254H18.504Z" fill="#CCD6DD"/>
<path d="M17.3213 13.0254L18 6.66675H6L6.67867 13.0254H17.3213Z" fill="#E1E8ED"/>
<path d="M12 14.5399C15.595 14.5399 18.5094 13.837 18.5094 12.9699C18.5094 12.1028 15.595 11.3999 12 11.3999C8.40502 11.3999 5.49069 12.1028 5.49069 12.9699C5.49069 13.837 8.40502 14.5399 12 14.5399Z" fill="#ECD2A7"/>
<path d="M14.5573 12.7628L15.642 0.718086L13.65 0.538086L12.5493 12.7628H14.5573Z" fill="#AA8DD8"/>
<path d="M3.79732 6.66868C3.67799 7.36868 3.68932 8.24402 4.07265 8.35335C4.37932 8.44135 4.80865 8.29335 5.16532 8.47135C5.52199 8.64935 5.80732 9.11468 6.16932 9.23868C6.86265 9.47602 7.28799 9.03935 7.70465 9.09135C8.49665 9.19002 8.85199 9.94735 9.50599 10.0067C10.1593 10.066 10.6933 9.51468 11.3067 9.53402C11.9627 9.55535 11.9307 10.0454 12.96 10.0654C13.9707 10.0847 14.1373 9.42602 14.7313 9.38602C15.3253 9.34669 15.712 9.75068 16.2667 9.65202C16.8213 9.55268 17.0513 8.97402 17.5067 8.85468C17.962 8.73602 18.2033 9.07202 18.5993 8.97268C18.9953 8.87402 19.204 8.19268 19.442 8.01402C19.6793 7.83602 20.4893 8.85402 20.2933 6.90535C19.936 3.35335 7.53999 6.53002 6.37199 6.45135C5.20332 6.37202 4.04465 5.22135 3.79732 6.66868Z" fill="#55ACEE"/>
<path d="M12 9.20729C16.5471 9.20729 20.2333 8.07308 20.2333 6.67396C20.2333 5.27484 16.5471 4.14062 12 4.14062C7.45285 4.14062 3.76666 5.27484 3.76666 6.67396C3.76666 8.07308 7.45285 9.20729 12 9.20729Z" fill="#88C9F9"/>
<path d="M15.642 0.717908L13.65 0.538574L13.0813 6.85457C13.0807 6.85924 13.0773 6.86324 13.0773 6.86724C13.0773 7.05124 13.5253 7.20057 14.0773 7.20057C14.6293 7.20057 15.0773 7.05124 15.0773 6.86724V6.86657H15.0887L15.642 0.717908Z" fill="#9266CC"/>
<path d="M15.642 0.718104C15.6254 0.901437 15.166 1.0101 14.616 0.960104C14.066 0.91077 13.6334 0.721437 13.65 0.538104C13.6667 0.35477 14.126 0.246104 14.676 0.296104C15.226 0.346104 15.6587 0.53477 15.642 0.718104Z" fill="#553788"/>
<path d="M13.5427 13.1266C14.0949 13.1266 14.5427 12.9774 14.5427 12.7933C14.5427 12.6092 14.0949 12.46 13.5427 12.46C12.9904 12.46 12.5427 12.6092 12.5427 12.7933C12.5427 12.9774 12.9904 13.1266 13.5427 13.1266Z" fill="#AA8DD8"/>
<path d="M7.52999 19.7029C7.31199 19.9209 6.92266 19.8862 6.66132 19.6249C6.39999 19.3636 6.36466 18.9742 6.58332 18.7562C6.80132 18.5382 7.19066 18.5729 7.45199 18.8342C7.71332 19.0956 7.74799 19.4842 7.52999 19.7029ZM9.48866 22.6016C9.42932 22.8356 9.15532 22.9676 8.87732 22.8976C8.59932 22.8269 8.42132 22.5802 8.48066 22.3462C8.53999 22.1122 8.81399 21.9796 9.09199 22.0502C9.37066 22.1209 9.54799 22.3676 9.48866 22.6016ZM11.856 18.2076C11.7933 18.4542 11.5173 18.5962 11.2387 18.5262C10.9607 18.4556 10.7853 18.1989 10.848 17.9522C10.9107 17.7056 11.1867 17.5636 11.4653 17.6336C11.7433 17.7042 11.9187 17.9616 11.856 18.2076Z" fill="#292F33"/>
<path d="M11.478 23.1381C11.8723 23.1381 12.192 22.8679 12.192 22.5347C12.192 22.2015 11.8723 21.9314 11.478 21.9314C11.0836 21.9314 10.764 22.2015 10.764 22.5347C10.764 22.8679 11.0836 23.1381 11.478 23.1381Z" fill="#292F33"/>
<path d="M16.7653 17.7215C16.8333 18.0215 16.628 18.3241 16.3067 18.3968C15.9853 18.4701 15.6693 18.2861 15.6007 17.9861C15.5327 17.6861 15.738 17.3841 16.0593 17.3108C16.3807 17.2375 16.6967 17.4215 16.7653 17.7215ZM14.77 20.7195C14.6473 21.0935 14.27 21.3055 13.9267 21.1928C13.584 21.0801 13.4053 20.6861 13.528 20.3115C13.6507 19.9368 14.028 19.7255 14.3713 19.8381C14.714 19.9508 14.8927 20.3448 14.77 20.7195ZM11.3527 20.4001C11.4633 20.7541 11.2767 21.1275 10.9353 21.2341C10.594 21.3408 10.228 21.1401 10.1173 20.7861C10.0067 20.4321 10.1933 20.0588 10.5347 19.9521C10.8753 19.8455 11.242 20.0461 11.3527 20.4001ZM12.94 20.2055C12.6367 20.3641 12.2667 20.2561 12.114 19.9648C11.9613 19.6728 12.0833 19.3075 12.3873 19.1488C12.6907 18.9901 13.0607 19.0975 13.2133 19.3895C13.366 19.6815 13.2433 20.0468 12.94 20.2055ZM14.0727 21.9441C14.1273 22.2781 13.85 22.6015 13.4533 22.6661C13.0567 22.7308 12.6907 22.5128 12.6367 22.1788C12.582 21.8448 12.8593 21.5215 13.256 21.4568C13.6527 21.3921 14.018 21.6101 14.0727 21.9441ZM9.56466 19.3541C9.33066 19.5468 8.93399 19.4508 8.67866 19.1401C8.42332 18.8295 8.40666 18.4221 8.64066 18.2295C8.87466 18.0368 9.27132 18.1328 9.52666 18.4428C9.78132 18.7541 9.79866 19.1621 9.56466 19.3541ZM15.8693 21.8121C16.0367 22.0748 15.9133 22.4528 15.5947 22.6561C15.2753 22.8595 14.8813 22.8108 14.714 22.5475C14.5467 22.2848 14.67 21.9068 14.9887 21.7035C15.3073 21.5008 15.702 21.5488 15.8693 21.8121ZM17.0547 21.2695C17.2573 21.4081 17.268 21.7455 17.0787 22.0228C16.8893 22.3008 16.5713 22.4135 16.368 22.2748C16.1653 22.1361 16.1547 21.7988 16.344 21.5215C16.534 21.2441 16.852 21.1308 17.0547 21.2695ZM6.48532 16.9561C6.67066 16.9461 6.83332 17.1795 6.84999 17.4781C6.86599 17.7768 6.72932 18.0268 6.54466 18.0368C6.35932 18.0468 6.19666 17.8135 6.17999 17.5148C6.16332 17.2161 6.30066 16.9661 6.48532 16.9561ZM15.8967 19.2668C16.0233 19.4841 15.926 19.7761 15.6793 19.9201C15.4327 20.0641 15.13 20.0048 15.0033 19.7875C14.8767 19.5701 14.974 19.2781 15.2207 19.1341C15.4673 18.9901 15.77 19.0495 15.8967 19.2668ZM12.3693 20.9121C12.5493 21.0348 12.582 21.2995 12.4427 21.5035C12.3033 21.7075 12.0453 21.7728 11.8653 21.6501C11.6853 21.5275 11.6527 21.2628 11.792 21.0588C11.9313 20.8555 12.19 20.7895 12.3693 20.9121ZM17.252 19.3748C17.4487 19.4268 17.546 19.7035 17.47 19.9935C17.3933 20.2835 17.1727 20.4768 16.976 20.4248C16.7793 20.3728 16.682 20.0961 16.758 19.8061C16.8347 19.5161 17.0553 19.3228 17.252 19.3748ZM17.3333 18.0868C17.4873 18.1275 17.5607 18.3568 17.4967 18.5995C17.4327 18.8421 17.256 19.0061 17.102 18.9655C16.948 18.9248 16.8747 18.6955 16.9387 18.4528C17.0027 18.2101 17.1793 18.0468 17.3333 18.0868ZM16.4853 20.3508C16.6853 20.5335 16.6547 20.8921 16.4173 21.1528C16.1793 21.4135 15.8247 21.4768 15.6247 21.2941C15.4247 21.1115 15.4553 20.7528 15.6927 20.4921C15.9307 20.2315 16.2853 20.1681 16.4853 20.3508ZM8.84799 20.8081C8.68666 21.0455 8.31399 21.0741 8.01532 20.8715C7.71666 20.6688 7.60532 20.3121 7.76666 20.0741C7.92799 19.8361 8.30066 19.8081 8.59932 20.0108C8.89799 20.2135 9.00932 20.5708 8.84799 20.8081ZM14.838 18.4748C14.8607 18.7795 14.588 19.0481 14.228 19.0755C13.868 19.1028 13.558 18.8775 13.5347 18.5735C13.512 18.2688 13.7847 18.0001 14.1447 17.9728C14.5047 17.9455 14.8147 18.1701 14.838 18.4748ZM10.1127 21.8215C9.93466 22.0468 9.56066 22.0481 9.27732 21.8241C8.99399 21.6008 8.90866 21.2368 9.08666 21.0115C9.26466 20.7861 9.63866 20.7848 9.92132 21.0088C10.2047 21.2321 10.2907 21.5961 10.1127 21.8215ZM7.85799 21.4261C8.08532 21.7268 8.07932 22.1155 7.84332 22.2935C7.60799 22.4715 7.23266 22.3721 7.00466 22.0708C6.77666 21.7695 6.78332 21.3815 7.01932 21.2035C7.25466 21.0255 7.62999 21.1248 7.85799 21.4261Z" fill="#292F33"/>
</svg>
