<svg width="36" height="36" viewBox="0 0 36 36" fill="none" xmlns="http://www.w3.org/2000/svg">
<path d="M30 4C27.791 4 26 5.791 26 8V17.125C26 18.211 25.113 19.085 24 19.573V6C24 2.687 21.313 0 18 0C14.687 0 12 2.687 12 6V23.629C10.878 23.154 10 22.258 10 21.125V16C10 13.791 8.209 12 6 12C3.791 12 2 13.791 2 16V23C2 25.209 3.75 26.875 5.375 27.812C6.619 28.53 10.106 29.412 12 29.463V33C12 36.313 24 36.313 24 33V25.451C25.981 25.332 29.291 24.498 30.479 23.812C32.104 22.875 34 21.209 34 19V8C34 5.791 32.209 4 30 4Z" fill="#77B255"/>
<path d="M12 7C12.5523 7 13 6.55228 13 6C13 5.44772 12.5523 5 12 5C11.4477 5 11 5.44772 11 6C11 6.55228 11.4477 7 12 7Z" fill="#3E721D"/>
<path d="M23 4C23.5523 4 24 3.55228 24 3C24 2.44772 23.5523 2 23 2C22.4477 2 22 2.44772 22 3C22 3.55228 22.4477 4 23 4Z" fill="#3E721D"/>
<path d="M21 10C21.5523 10 22 9.55228 22 9C22 8.44772 21.5523 8 21 8C20.4477 8 20 8.44772 20 9C20 9.55228 20.4477 10 21 10Z" fill="#3E721D"/>
<path d="M14 17C14.5523 17 15 16.5523 15 16C15 15.4477 14.5523 15 14 15C13.4477 15 13 15.4477 13 16C13 16.5523 13.4477 17 14 17Z" fill="#3E721D"/>
<path d="M20 21C20.5523 21 21 20.5523 21 20C21 19.4477 20.5523 19 20 19C19.4477 19 19 19.4477 19 20C19 20.5523 19.4477 21 20 21Z" fill="#3E721D"/>
<path d="M13 27C13.5523 27 14 26.5523 14 26C14 25.4477 13.5523 25 13 25C12.4477 25 12 25.4477 12 26C12 26.5523 12.4477 27 13 27Z" fill="#3E721D"/>
<path d="M5 28C5.55228 28 6 27.5523 6 27C6 26.4477 5.55228 26 5 26C4.44772 26 4 26.4477 4 27C4 27.5523 4.44772 28 5 28Z" fill="#3E721D"/>
<path d="M9 21C9.55228 21 10 20.5523 10 20C10 19.4477 9.55228 19 9 19C8.44772 19 8 19.4477 8 20C8 20.5523 8.44772 21 9 21Z" fill="#3E721D"/>
<path d="M2 19C2.55228 19 3 18.5523 3 18C3 17.4477 2.55228 17 2 17C1.44772 17 1 17.4477 1 18C1 18.5523 1.44772 19 2 19Z" fill="#3E721D"/>
<path d="M34 9C34.5523 9 35 8.55228 35 8C35 7.44772 34.5523 7 34 7C33.4477 7 33 7.44772 33 8C33 8.55228 33.4477 9 34 9Z" fill="#3E721D"/>
<path d="M28 12C28.5523 12 29 11.5523 29 11C29 10.4477 28.5523 10 28 10C27.4477 10 27 10.4477 27 11C27 11.5523 27.4477 12 28 12Z" fill="#3E721D"/>
<path d="M32 17C32.5523 17 33 16.5523 33 16C33 15.4477 32.5523 15 32 15C31.4477 15 31 15.4477 31 16C31 16.5523 31.4477 17 32 17Z" fill="#3E721D"/>
<path d="M29 25C29.5523 25 30 24.5523 30 24C30 23.4477 29.5523 23 29 23C28.4477 23 28 23.4477 28 24C28 24.5523 28.4477 25 29 25Z" fill="#3E721D"/>
<path d="M22 31C22.5523 31 23 30.5523 23 30C23 29.4477 22.5523 29 22 29C21.4477 29 21 29.4477 21 30C21 30.5523 21.4477 31 22 31Z" fill="#3E721D"/>
</svg>
