<svg width="36" height="36" viewBox="0 0 36 36" fill="none" xmlns="http://www.w3.org/2000/svg">
<path d="M18 9V20.756C15 20.756 16.933 25.938 12 26.755C10.219 27.05 8.06899 27.11 5.99999 26.755C2.74699 26.196 1.17599 23.728 0.957993 19.074C0.676993 13.081 2.23399 10.227 6.27599 9.541C9.39399 9.012 14 9 18 9Z" fill="#9AAAB4"/>
<path d="M17.926 9V20.756C20.926 20.756 18.993 25.938 23.926 26.755C25.707 27.05 27.857 27.11 29.926 26.755C33.179 26.196 34.75 23.728 34.968 19.074C35.249 13.081 33.692 10.227 29.65 9.541C26.532 9.012 21.926 9 17.926 9ZM1.5 21C0.675 21 0 20.325 0 19.5V16.5C0 15.675 0.675 15 1.5 15C2.325 15 3 15.675 3 16.5V19.5C3 20.325 2.325 21 1.5 21Z" fill="#9AAAB4"/>
<path d="M34.5 21C33.675 21 33 20.325 33 19.5V16.5C33 15.675 33.675 15 34.5 15C35.325 15 36 15.675 36 16.5V19.5C36 20.325 35.325 21 34.5 21Z" fill="#9AAAB4"/>
<path d="M34.5 22C33.675 22 33 21.325 33 20.5V15.5C33 14.675 33.675 14 34.5 14C35.325 14 36 14.675 36 15.5V20.5C36 21.325 35.325 22 34.5 22ZM1.5 22C0.675 22 0 21.325 0 20.5V15.5C0 14.675 0.675 14 1.5 14C2.325 14 3 14.675 3 15.5V20.5C3 21.325 2.325 22 1.5 22Z" fill="#9AAAB4"/>
<path d="M18 11V18.756C14 18.756 15.385 24.152 11 24.756C9.417 24.974 8.839 25.019 7 24.756C4.108 24.343 3.078 22.201 2.831 18.866C2.506 14.472 4.097 11.907 7.69 11.4C10.461 11.009 14.444 11 18 11Z" fill="#CCD6DD"/>
<path d="M18 11V18.756C22 18.756 20.615 24.152 25 24.756C26.583 24.974 27.161 25.019 29 24.756C31.892 24.343 32.922 22.201 33.169 18.866C33.494 14.472 31.903 11.907 28.31 11.4C25.539 11.009 21.556 11 18 11Z" fill="#CCD6DD"/>
<path d="M26.993 11.252C26.338 11.191 25.643 11.145 24.916 11.11L21.221 21.261C21.599 22.021 21.971 22.821 22.544 23.473L26.993 11.252ZM18 11C17.354 11 16.692 11.001 16.027 11.004L11.024 24.751C15.378 24.13 14.008 18.756 18 18.756C18.601 18.756 19.07 18.889 19.466 19.098L22.403 11.03C20.937 11.003 19.435 11 18 11Z" fill="#E1E8ED"/>
<path d="M35 16H34V20H35C35.55 20 36 19.55 36 19V17C36 16.45 35.55 16 35 16ZM1 16C0.45 16 0 16.45 0 17V19C0 19.55 0.45 20 1 20H2V16H1Z" fill="#292F33"/>
</svg>
