<svg width="36" height="36" viewBox="0 0 36 36" fill="none" xmlns="http://www.w3.org/2000/svg">
<path d="M36 26C36 28.209 34.209 30 32 30H8C5.791 30 4 28.209 4 26V6.313C4 4.104 9.791 0 12 0H30.625C33.719 0 36 2.312 36 5.375V26Z" fill="#F4900C"/>
<path d="M34 30C34 32.209 32.209 34 30 34H10C7.791 34 6 32.209 6 30V5.99999C6 1.88099 5.979 1.99999 11 1.99999H30C32.209 1.99999 34 3.79099 34 5.99999V30Z" fill="#CCD6DD"/>
<path d="M32 31C32 32.657 30.657 34 29 34H7C5.343 34 4 32.657 4 31V7C4 5.343 5.343 4 7 4H29C30.657 4 32 5.343 32 7V31Z" fill="#E1E8ED"/>
<path d="M32 32C32 34.209 30.209 36 28 36H9C6.791 36 5 34.209 5 32V10C5 7.791 6.791 6 9 6H28C30.209 6 32 7.791 32 10V32Z" fill="#FFAC33"/>
<path d="M30 32C30 34.209 28.209 36 26 36H9C6.791 36 5 34.209 5 32V12C5 9.791 6.791 8 9 8H26.335C28.544 8 30 9.456 30 11.665V32Z" fill="#FFCC4D"/>
<path d="M9 6C7.312 6 7.269 4.078 8 3.25C8.832 2.309 10.125 2 12.438 2H14V0H11.281C7.312 0 4 2.5 4 5.375V32C4 34.209 5.791 36 8 36H10V6H9Z" fill="#F4900C"/>
<path d="M8.54199 32.979C8.54199 33.681 7.87499 34.25 7.05199 34.25C6.22999 34.25 5.56299 33.681 5.56299 32.979C5.56299 32.278 6.22999 31.708 7.05199 31.708C7.87499 31.708 8.54199 32.277 8.54199 32.979Z" fill="#662113"/>
<path d="M6.89401 32.271C6.41401 32.326 6.10201 32.646 5.87701 33C5.57001 33.485 4.87001 34 4.00001 34C2.89601 34 2.00001 33.329 2.00001 32.5C2.00001 31.671 2.89601 31 4.00001 31V29.004C1.83301 29.025 0.0830078 30.579 0.0830078 32.5C0.0830078 34.434 1.85501 36 4.04101 36C5.89501 36 7.38801 34.955 7.94201 33.431C8.21901 32.672 7.47301 32.207 6.89401 32.271Z" fill="#66757F"/>
<path d="M8.54199 24.979C8.54199 25.681 7.87499 26.25 7.05199 26.25C6.22999 26.25 5.56299 25.681 5.56299 24.979C5.56299 24.278 6.22999 23.708 7.05199 23.708C7.87499 23.708 8.54199 24.277 8.54199 24.979Z" fill="#662113"/>
<path d="M6.89401 24.271C6.41401 24.326 6.10201 24.646 5.87701 25C5.57001 25.485 4.87001 26 4.00001 26C2.89601 26 2.00001 25.329 2.00001 24.5C2.00001 23.671 2.89601 23 4.00001 23V21.004C1.83301 21.025 0.0830078 22.579 0.0830078 24.5C0.0830078 26.434 1.85501 28 4.04101 28C5.89501 28 7.38801 26.955 7.94201 25.431C8.21901 24.672 7.47301 24.207 6.89401 24.271Z" fill="#66757F"/>
<path d="M8.54199 16.979C8.54199 17.681 7.87499 18.25 7.05199 18.25C6.22999 18.25 5.56299 17.681 5.56299 16.979C5.56299 16.278 6.22999 15.708 7.05199 15.708C7.87499 15.708 8.54199 16.277 8.54199 16.979Z" fill="#662113"/>
<path d="M6.89401 16.271C6.41401 16.326 6.10201 16.646 5.87701 17C5.57001 17.485 4.87001 18 4.00001 18C2.89601 18 2.00001 17.329 2.00001 16.5C2.00001 15.671 2.89601 15 4.00001 15V13.004C1.83301 13.025 0.0830078 14.579 0.0830078 16.5C0.0830078 18.434 1.85501 20 4.04101 20C5.89501 20 7.38801 18.955 7.94201 17.431C8.21901 16.672 7.47301 16.207 6.89401 16.271Z" fill="#66757F"/>
<path d="M8.54199 8.97901C8.54199 9.68101 7.87499 10.25 7.05199 10.25C6.22999 10.25 5.56299 9.68101 5.56299 8.97901C5.56299 8.27801 6.22999 7.70801 7.05199 7.70801C7.87499 7.70801 8.54199 8.27701 8.54199 8.97901Z" fill="#662113"/>
<path d="M6.89401 8.27103C6.41401 8.32603 6.10201 8.64603 5.87701 9.00003C5.57001 9.48503 4.87001 10 4.00001 10C2.89601 10 2.00001 9.32903 2.00001 8.50003C2.00001 7.67103 2.89601 7.00003 4.00001 7.00003V5.00403C1.83401 5.02403 0.0830078 6.57903 0.0830078 8.50003C0.0830078 10.434 1.85501 12 4.04101 12C5.89501 12 7.38801 10.955 7.94201 9.43103C8.21901 8.67203 7.47301 8.20703 6.89401 8.27103Z" fill="#66757F"/>
</svg>
