<svg width="24" height="24" viewBox="0 0 24 24" fill="none" xmlns="http://www.w3.org/2000/svg">
<path d="M1.58735 5.78068C0.538685 5.78068 0.0146848 6.30468 0.538685 6.82934C1.58735 7.87801 2.63535 7.87801 3.15935 7.35334L1.58735 5.78068ZM5.78068 1.58734C5.78068 0.538677 6.30469 0.0146771 6.82935 0.538677C7.87802 1.58734 7.87802 2.63534 7.35335 3.15934L5.78068 1.58734ZM2.63602 7.87734C2.63602 7.87734 8.33402 17.4993 12.5954 18.8853C14.8247 19.61 16.39 19.2847 17.8374 17.8367C19.2847 16.3887 19.4414 14.872 18.886 12.5947C17.958 8.79201 7.87735 2.63601 7.87735 2.63601L2.63602 7.87734Z" fill="#A78E81"/>
<path d="M10.7527 17.9013C13.5734 21.4747 16.6147 23.106 17.7294 22.2473C18.812 21.414 17.5134 20.5287 16.28 17.6113C14.9894 14.558 9.26269 16.0133 10.7527 17.9013ZM17.9 10.7133C21.4733 13.534 23.102 16.6187 22.244 17.7333C21.4107 18.816 20.5253 17.5173 17.608 16.284C14.554 14.9933 16.012 9.22333 17.9 10.7133Z" fill="#A78E81"/>
<path d="M11.3387 14.376C11.8047 13.518 10.7294 12.134 9.66937 12.1667C8.88804 12.1907 7.25804 13.456 5.74737 11.6693C5.60804 11.8087 5.54471 12 5.54004 12.222C6.31204 13.2733 7.18804 14.3833 8.10537 15.3987C9.20937 15.718 10.714 15.5267 11.3387 14.376ZM12.1667 9.66932C12.134 10.7287 13.5187 11.8047 14.376 11.3387C15.5174 10.7187 15.714 9.23265 15.4054 8.13199C14.3754 7.21732 13.2414 6.32999 12.1714 5.54399C11.9714 5.55732 11.798 5.61932 11.6694 5.74799C13.4554 7.25799 12.1907 8.88799 12.1667 9.66932Z" fill="#846659"/>
<path d="M8.894 11.2633C9.95334 11.2307 11.0293 12.6153 10.5633 13.4727C9.81667 14.8467 7.80667 14.8633 6.73667 14.2613C5.54334 13.59 4.24867 11.49 4.97267 10.766C6.48267 12.5527 8.112 11.288 8.894 11.2633ZM11.2627 8.89465C11.23 9.95399 12.6147 11.03 13.472 10.564C14.846 9.81732 14.8627 7.80732 14.2607 6.73732C13.5893 5.54399 11.4893 4.24932 10.7653 4.97332C12.5513 6.48332 11.2867 8.11332 11.2627 8.89465Z" fill="#CAB8AC"/>
<path d="M18.3614 16.2647C20.6774 18.5807 24.182 23.024 23.6034 23.6034C23.0247 24.182 18.5807 20.6774 16.2647 18.3614C13.9487 16.0454 13.5887 14.7467 14.168 14.168C14.7467 13.5887 16.0454 13.9487 18.3614 16.2647ZM8.40204 2.11135C9.84937 3.55868 9.43804 5.26868 7.35337 7.35335C5.2687 9.43802 3.55871 9.84935 2.11137 8.40202C0.664038 6.95468 0.551371 4.72002 2.63604 2.63602C4.72071 0.552017 6.95404 0.664017 8.40204 2.11135Z" fill="#A78E81"/>
<path d="M9.15867 2.86865C9.974 3.68399 10.486 6.31732 8.40133 8.40199C6.31667 10.4867 3.684 9.97465 2.868 9.15932C1.58133 7.87265 3.68333 5.78132 4.732 4.73265C5.78067 3.68399 7.872 1.58199 9.15867 2.86865Z" fill="#CAB8AC"/>
<path d="M6.30469 4.20801C6.88336 4.78668 6.88336 5.72601 6.30469 6.30468C5.72602 6.88335 4.78669 6.88335 4.20802 6.30468C3.62936 5.72601 4.15336 5.31135 4.73269 4.73268C5.31202 4.15401 5.72602 3.62935 6.30469 4.20801Z" fill="#292F33"/>
<path d="M3.16003 7.04601C3.56946 7.04601 3.90137 6.7141 3.90137 6.30468C3.90137 5.89525 3.56946 5.56334 3.16003 5.56334C2.75061 5.56334 2.4187 5.89525 2.4187 6.30468C2.4187 6.7141 2.75061 7.04601 3.16003 7.04601Z" fill="#292F33"/>
<path d="M6.30469 3.90131C6.71411 3.90131 7.04602 3.56941 7.04602 3.15998C7.04602 2.75055 6.71411 2.41865 6.30469 2.41865C5.89526 2.41865 5.56335 2.75055 5.56335 3.15998C5.56335 3.56941 5.89526 3.90131 6.30469 3.90131Z" fill="#292F33"/>
<path d="M7.10334 6.93402C6.81934 6.93402 6.55667 6.86669 6.34867 6.72869C6.22267 6.64535 6.18801 6.47535 6.27134 6.34869C6.35467 6.22202 6.52467 6.18735 6.65134 6.27135C6.95267 6.47069 7.54401 6.39669 7.99734 6.10269C8.18134 5.98335 8.60134 5.65335 8.52067 5.17002C8.49601 5.02069 8.59667 4.87935 8.74601 4.85469C8.89601 4.83069 9.03667 4.93069 9.06134 5.08002C9.15401 5.63735 8.86734 6.19202 8.29467 6.56269C7.91801 6.80802 7.49134 6.93402 7.10334 6.93402Z" fill="#A78E81"/>
<path d="M5.28732 9.07932C5.21866 9.07932 5.14932 9.07332 5.08066 9.06199C4.93132 9.03665 4.82999 8.89599 4.85532 8.74665C4.88066 8.59732 5.02266 8.49665 5.17066 8.52132C5.65199 8.60199 5.98399 8.18199 6.10332 7.99732C6.39732 7.54332 6.47199 6.95199 6.27199 6.65132C6.18866 6.52532 6.22266 6.35532 6.34932 6.27132C6.47532 6.18732 6.64599 6.22199 6.72932 6.34865C7.05532 6.84132 6.98732 7.64132 6.56332 8.29532C6.23799 8.79732 5.77199 9.07932 5.28732 9.07932Z" fill="#A78E81"/>
<path d="M17.09 19.2693C16.4093 18.18 16.0893 16.894 16.4913 16.492C16.9 16.0833 17.8733 15.9953 19.282 17.0773C18.3833 16.22 16.7773 15.2807 16.4913 13.7147C16.5733 15.1573 16.212 16.798 13.7413 16.41C15.1293 16.8193 17.09 19.2693 17.09 19.2693Z" fill="#846659"/>
<path d="M1.95196 10.4867C1.93329 10.4867 1.91396 10.4853 1.89463 10.4813C1.71863 10.45 1.60129 10.2813 1.63263 10.1053C1.90396 8.59267 2.82796 7.51134 4.10396 7.21334C4.27796 7.17334 4.45263 7.28134 4.49329 7.45534C4.53396 7.63001 4.42596 7.80401 4.25129 7.84467C3.23529 8.08201 2.49529 8.97067 2.27063 10.2207C2.24263 10.376 2.10663 10.4867 1.95196 10.4867Z" fill="#67757F"/>
<path d="M3.38131 10.6493C3.21265 10.6493 3.07065 10.5193 3.05865 10.3487C3.00598 9.63001 3.38731 8.68335 4.11598 8.34335C4.27865 8.26801 4.47131 8.33735 4.54665 8.50001C4.62198 8.66201 4.55265 8.85535 4.38998 8.93068C3.94265 9.13935 3.66998 9.82068 3.70465 10.3013C3.71798 10.48 3.58398 10.6353 3.40531 10.648C3.39665 10.6493 3.38931 10.6493 3.38131 10.6493ZM7.51998 4.51001C7.49531 4.51001 7.47064 4.50735 7.44598 4.50135C7.27131 4.46068 7.16331 4.28601 7.20398 4.11201C7.50265 2.83601 8.58398 1.91268 10.096 1.64068C10.272 1.60935 10.4406 1.72668 10.472 1.90268C10.5033 2.07868 10.3866 2.24735 10.21 2.27868C8.95998 2.50335 8.07198 3.24335 7.83398 4.25935C7.80065 4.40935 7.66731 4.51001 7.51998 4.51001Z" fill="#67757F"/>
<path d="M8.62927 4.58467C8.58327 4.58467 8.53661 4.57467 8.49261 4.55401C8.32994 4.47867 8.26061 4.28534 8.33594 4.12334C8.67594 3.39467 9.61527 3.01401 10.3413 3.06601C10.5199 3.07867 10.6539 3.23467 10.6406 3.41267C10.6279 3.59067 10.4753 3.72467 10.2939 3.71201C9.81927 3.68001 9.13261 3.95001 8.92327 4.39734C8.86794 4.51534 8.75127 4.58467 8.62927 4.58467Z" fill="#67757F"/>
</svg>
