<svg width="36" height="36" viewBox="0 0 36 36" fill="none" xmlns="http://www.w3.org/2000/svg">
<path d="M3.96805 33.446C2.21105 35.204 0.47005 36.312 0.0790504 35.921C-0.31195 35.53 0.79705 33.789 2.55405 32.032C4.31105 30.274 6.05205 29.166 6.44305 29.557C6.83305 29.948 5.72505 31.688 3.96805 33.446Z" fill="#C1694F"/>
<path d="M6.44301 29.558L4.32101 27.436C4.32101 27.436 3.23801 28.829 2.03701 31.066C1.13701 32.742 0.786011 33.8 0.786011 33.8L1.49301 34.507L2.20001 35.214C2.20001 35.214 3.25901 34.862 4.93401 33.963C7.17101 32.762 8.56301 31.679 8.56301 31.679L6.44301 29.558Z" fill="#FFCC4D"/>
<path d="M34.02 1.98C30.485 -1.556 15.856 12.277 15.149 12.984C14.442 13.691 13.845 14.332 14.221 14.708L12.1 16.829C9.978 18.951 3.614 26.728 4.321 27.435L6.443 29.557L8.564 31.678C9.271 32.385 17.049 26.021 19.171 23.9L21.292 21.779C21.668 22.155 22.309 21.557 23.016 20.85C23.723 20.144 37.556 5.516 34.02 1.98Z" fill="#31373D"/>
<path d="M23.016 20.851C23.101 20.767 23.378 20.476 23.79 20.034L15.967 12.212C15.525 12.623 15.235 12.901 15.15 12.986C14.443 13.693 13.846 14.334 14.222 14.71L17.757 18.246L21.293 21.781C21.668 22.155 22.309 21.558 23.016 20.851Z" fill="#FFCC4D"/>
<path d="M31.212 2.001C30.285 1.074 29.048 0.101996 27.28 0.985996C25.512 1.87 19.967 5.427 17.402 7.991C16.08 9.313 16.155 10.093 16.651 10.156C17.472 10.262 18.021 10.244 18.773 9.493C19.523 8.742 19.656 7.46 19.656 7.46C19.656 7.46 22.706 5.118 25.114 3.682C27.523 2.245 28.382 2 29.224 2.842C30.066 3.684 31.212 2.001 31.212 2.001Z" fill="#FFAC33"/>
<path d="M28.87 2.48701L33.513 7.13001C33.866 6.42101 34.144 5.74601 34.331 5.11901L30.881 1.66901C30.254 1.85701 29.58 2.13501 28.87 2.48701Z" fill="#FFAC33"/>
</svg>
