<svg width="36" height="36" viewBox="0 0 36 36" fill="none" xmlns="http://www.w3.org/2000/svg">
<path d="M34.941 36V31.512C34.941 28.198 31.256 26.012 27.941 26.012H15.941C12.628 26.012 8.94101 28.198 8.94101 31.512V36H34.941Z" fill="#CCD6DD"/>
<path d="M21.887 4.08105C25.991 4.08105 32.834 6.13406 32.834 15.0281C32.834 23.9231 32.834 25.9761 30.781 25.9761C28.728 25.9761 25.991 23.9231 21.886 23.9231C17.781 23.9231 15.101 25.9761 12.991 25.9761C10.704 25.9761 10.938 17.7651 10.938 15.0281C10.938 6.13406 17.781 4.08105 21.887 4.08105Z" fill="#292F33"/>
<path d="M18.27 28.49C19.736 29.554 24.136 29.554 25.602 28.49V22.826H18.27V28.49Z" fill="#F7DECE"/>
<path d="M18.264 24.19C19.286 25.346 20.554 25.659 21.932 25.659C23.311 25.659 24.579 25.347 25.602 24.19V21.254H18.264V24.19Z" fill="#EEC2AD"/>
<path d="M13.675 14.729C13.675 8.89502 17.351 4.16602 21.886 4.16602C26.419 4.16602 30.095 8.89602 30.095 14.729C30.095 20.562 26.419 25.013 21.886 25.013C17.352 25.014 13.675 20.562 13.675 14.729Z" fill="#F7DECE"/>
<path d="M21.887 22.555C20.281 22.555 19.44 21.76 19.35 21.67C19.082 21.402 19.082 20.969 19.35 20.703C19.616 20.437 20.042 20.435 20.311 20.695C20.346 20.728 20.862 21.187 21.887 21.187C22.925 21.187 23.442 20.714 23.463 20.695C23.736 20.439 24.166 20.447 24.426 20.715C24.686 20.983 24.686 21.406 24.422 21.67C24.332 21.76 23.492 22.555 21.887 22.555Z" fill="#DF1F32"/>
<path d="M11.667 18.012C11.646 17.012 11.623 17.788 11.623 17.547C11.623 14.125 13.676 18.041 13.676 15.604C13.676 13.165 15.044 12.921 16.412 11.553C17.097 10.869 18.465 9.52703 18.465 9.52703C18.465 9.52703 21.886 11.594 24.623 11.594C27.359 11.594 30.097 12.969 30.097 15.706C30.097 18.442 32.15 14.122 32.15 17.543C32.15 17.787 32.128 17.012 32.11 18.012H32.829C32.835 16.012 32.835 16.088 32.835 14.81C32.835 5.91503 25.993 2.60303 21.887 2.60303C17.783 2.60303 10.94 5.86003 10.94 14.755C10.94 15.548 10.92 16.012 10.948 18.012H11.667Z" fill="#292F33"/>
<path d="M15.386 14.947C15.386 16.395 14.652 17.569 13.747 17.569C12.842 17.569 12.108 16.395 12.108 14.947C12.108 13.499 12.842 12.324 13.747 12.324C14.652 12.324 15.386 13.499 15.386 14.947ZM31.774 14.947C31.774 16.395 31.041 17.569 30.135 17.569C29.23 17.569 28.496 16.395 28.496 14.947C28.496 13.499 29.229 12.324 30.135 12.324C31.041 12.324 31.774 13.499 31.774 14.947Z" fill="#F7DECE"/>
<path d="M18.55 16.898C18.085 16.898 17.704 16.517 17.704 16.051V15.206C17.704 14.741 18.085 14.36 18.55 14.36C19.016 14.36 19.397 14.741 19.397 15.206V16.051C19.396 16.518 19.016 16.898 18.55 16.898ZM25.315 16.898C24.85 16.898 24.469 16.517 24.469 16.051V15.206C24.469 14.741 24.85 14.36 25.315 14.36C25.78 14.36 26.161 14.741 26.161 15.206V16.051C26.16 16.518 25.779 16.898 25.315 16.898Z" fill="#662113"/>
<path d="M22.777 19.512H21.087C20.854 19.512 20.664 19.323 20.664 19.088V18.936C20.664 18.702 20.853 18.512 21.087 18.512H22.777C23.01 18.512 23.201 18.702 23.201 18.936V19.088C23.201 19.322 23.011 19.512 22.777 19.512Z" fill="#C1694F"/>
<path d="M19 36L17.941 26.781C17.941 26.781 19.351 28.426 21.941 28.426C24.531 28.426 26.16 26.781 26.16 26.781L24.938 36H19Z" fill="#66757F"/>
<path d="M17.941 25.25C18.508 25.816 20.86 36 20.86 36H17.704L16 33.438L17.704 30.603L15.687 29.969L15.941 26.012C15.941 26.012 17.67 24.979 17.941 25.25ZM25.935 25.25C25.368 25.816 23.016 36 23.016 36H26.172L27.876 33.438L26.172 30.603L28.189 29.969L27.935 26.012C27.935 26.012 26.205 24.979 25.935 25.25Z" fill="#F5F8FA"/>
<path opacity="0.4" d="M14.753 12.75H29.253V18H14.753V12.75Z" fill="white"/>
<path d="M29 12H15C14 12 14 13 14 13V17C14 18.461 16.333 19 18 19C19.667 19 20.599 18 22 18C23.401 18 24.333 19 26 19C27.667 19 30 18.461 30 17V13C30 11.999 29 12 29 12ZM29 16C29 17.325 28.148 18 26 18C24.461 18 23.196 17 22 17C20.804 17 19.539 18 18 18C15.852 18 15 17.325 15 16V13H29V16Z" fill="#F5F8FA"/>
<path d="M7 12C7.55228 12 8 11.5523 8 11C8 10.4477 7.55228 10 7 10C6.44772 10 6 10.4477 6 11C6 11.5523 6.44772 12 7 12Z" fill="#9266CC"/>
<path d="M9 17C9.55228 17 10 16.5523 10 16C10 15.4477 9.55228 15 9 15C8.44772 15 8 15.4477 8 16C8 16.5523 8.44772 17 9 17Z" fill="#9266CC"/>
<path d="M5.5 16C6.32843 16 7 15.3284 7 14.5C7 13.6716 6.32843 13 5.5 13C4.67157 13 4 13.6716 4 14.5C4 15.3284 4.67157 16 5.5 16Z" fill="#9266CC"/>
<path d="M10 18H5C5 18 3 18 3 20C3 22 5 22 5 22V27L1 32C0.117 33.104 0 33.821 0 34C0 36 2 36 2 36H13C13 36 15 36 15 34C15 33.866 15.153 33.441 14 32L10 27V22C10 22 12 22 12 20C12 18 10 18 10 18Z" fill="#A8BCCC"/>
<path d="M9 27.351V21H10C10.449 20.988 11 20.806 11 20C11 19.197 10.453 19.013 9.992 19H5C4.55 19.012 4 19.194 4 20C4 20.806 4.55 20.988 5.012 21L5.987 21.024L6 27.351L4.106 29.719L7.5 33.219L10.894 29.719L9 27.351Z" fill="#E1E8ED"/>
<path d="M0.998993 34.034C0.999993 34.806 1.54999 34.988 2.01199 35H13C13.449 34.988 14 34.806 14 34V33.959L14.006 33.877C14.006 33.874 13.951 33.54 13.219 32.625L10.894 29.719H4.10599L1.78099 32.625C1.06199 33.524 0.998993 34.029 0.998993 34.034Z" fill="#9266CC"/>
</svg>
