<svg width="24" height="24" viewBox="0 0 24 24" fill="none" xmlns="http://www.w3.org/2000/svg">
<g clip-path="url(#clip0)">
<path d="M19.2266 11.7587C18.5686 12.4547 18.138 13.8033 18.268 14.754L18.8626 19.048C18.994 19.9993 18.3953 20.4393 17.532 20.0273L13.6313 18.1633C12.768 17.75 11.3593 17.756 10.498 18.1753L6.61398 20.07C5.75331 20.4893 5.15198 20.0527 5.27598 19.102L5.83798 14.8027C5.96198 13.8513 5.52131 12.5067 4.85798 11.8153L1.86198 8.69C1.19798 7.99867 1.42531 7.28867 2.36531 7.11333L6.61198 6.32134C7.55198 6.146 8.68931 5.30934 9.14065 4.462L11.1746 0.637335C11.6246 -0.209998 12.3673 -0.211998 12.8233 0.631335L14.8866 4.44C15.344 5.28334 16.4866 6.11133 17.4293 6.27867L21.6813 7.03933C22.6226 7.20733 22.8553 7.91534 22.1973 8.612L19.2266 11.7587Z" fill="#FFAC33"/>
<path d="M6.52205 1.454C7.20405 2.396 8.15271 4.732 7.66671 5.08533C7.18138 5.43933 5.26205 3.812 4.58005 2.87C3.89871 1.928 3.95671 1.09133 4.49271 0.700664C5.02871 0.309331 5.83938 0.512664 6.52205 1.454ZM19.4207 2.87C18.7394 3.812 16.82 5.44 16.3334 5.08466C15.8474 4.73133 16.7967 2.396 17.4794 1.45466C18.1614 0.511997 18.9714 0.308664 19.508 0.700664C20.0434 1.09133 20.1014 1.928 19.4207 2.87ZM11.0834 22.194C11.0827 21.03 11.682 18.58 12.284 18.58C12.882 18.58 13.4827 21.03 13.482 22.1933C13.482 23.358 12.946 24.0013 12.282 24C11.6194 24.0013 11.0834 23.3587 11.0834 22.194ZM21.8694 16.0193C20.766 15.66 18.6307 14.3307 18.8167 13.756C19.0014 13.184 21.508 13.3687 22.61 13.7287C23.7134 14.0887 24.1574 14.7987 23.952 15.4327C23.7467 16.066 22.9727 16.3793 21.8694 16.0193ZM1.38871 13.7293C2.49205 13.3693 4.99805 13.1847 5.18471 13.7587C5.36871 14.33 3.23271 15.6613 2.13071 16.02C1.02805 16.38 0.252046 16.0667 0.0487131 15.4333C-0.15662 14.8 0.284713 14.09 1.38871 13.7293Z" fill="#FFD983"/>
</g>
<defs>
<clipPath id="clip0">
<rect width="24" height="24" fill="white"/>
</clipPath>
</defs>
</svg>
