<svg width="24" height="24" viewBox="0 0 24 24" fill="none" xmlns="http://www.w3.org/2000/svg">
<path d="M8 5.07132L2 3.46398C0.895333 3.16798 0 3.82332 0 4.92865V18.262C0 19.366 0.895333 20.5013 2 20.798L8 22.4053V5.07132ZM16 20.262L22 21.8693C23.104 22.1646 24 21.5093 24 20.4053V7.07198C24 5.96732 23.104 4.83198 22 4.53598L16 2.92865V20.262Z" fill="#CCD6DD"/>
<path d="M16 20.2613L8 22.4046V5.07131L16 2.92798V20.2613Z" fill="#E1E8ED"/>
<path d="M8.00001 6.40468L2.66668 4.97535C1.93068 4.77801 1.33334 5.21535 1.33334 5.95135V17.9513C1.33334 18.6873 1.93068 19.4447 2.66668 19.6413L8.00001 21.0713V6.40468ZM21.3333 5.69001L16 4.26068V18.9273L21.3333 20.3567C22.0693 20.554 22.6667 20.1173 22.6667 19.38V7.38001C22.6667 6.64468 22.0693 5.88735 21.3333 5.69001Z" fill="#55ACEE"/>
<path d="M16 18.928L8 21.0713V6.40466L16 4.26132V18.928Z" fill="#88C9F9"/>
<path d="M8 14.3373C7.82133 14.3413 7.60333 14.4067 7.43666 14.434C7.146 14.4827 7.21733 14.7787 7.128 14.7293C7.038 14.68 6.81133 14.5527 6.58666 14.2907C6.362 14.028 6.75333 13.9727 6.86533 13.876C6.97733 13.7793 6.65466 13.7613 6.542 13.6547C6.42933 13.5487 6.228 13.724 6.04933 13.4707C5.86933 13.22 5.982 12.944 5.96066 12.684C5.938 12.424 6.25133 12.4567 6.45333 12.4613C6.65533 12.4633 6.812 12.5573 6.812 12.8627C6.812 13.1667 7.05866 13.3347 6.99133 12.96C6.924 12.586 7.05866 12.522 7.148 12.3667C7.23733 12.2133 7.39466 12 7.596 11.6733C7.74333 11.4347 7.85533 11.4847 8 11.564V9.334C7.96333 9.30466 7.92666 9.274 7.89 9.25866C7.688 9.17066 7.954 9.76066 7.79733 9.998C7.63933 10.2353 7.39866 10.1267 7.15066 10.0607C6.90466 9.99466 6.67533 9.69733 6.85533 9.38933C7.034 9.08133 7.37666 9.21066 7.556 8.954C7.73533 8.69733 6.918 8.506 6.62666 8.32666C6.33466 8.146 5.98466 8.054 5.69333 8.22933C5.402 8.40533 4.778 8.318 4.53133 8.35333C4.28466 8.38933 4.24066 8.10733 4.196 7.89133C4.15133 7.67666 3.76066 7.672 3.358 7.666C2.954 7.65933 2.19733 7.85333 2.32666 8.83866C2.372 9.18133 2.73 8.92133 2.798 8.86266C2.86533 8.804 3.20133 8.996 3.24533 9.28733C3.29066 9.58 3.26866 9.87866 3.17933 10.1087C3.088 10.3387 3.40333 10.7793 3.582 11.1833C3.76133 11.5867 3.964 11.6407 4.05333 11.6653C4.14333 11.6893 4.65866 12.0567 4.63666 12.3293C4.61466 12.6033 5.10733 12.99 5.30933 13.2227C5.51133 13.456 5.63866 13.664 5.90066 13.7867C6.16266 13.9087 6.46866 14.4767 6.60333 14.5633C6.70666 14.63 6.882 14.864 6.98733 14.95C6.84866 15.1113 6.57933 15.4487 6.57933 15.636C6.57933 15.8913 6.87266 16.3713 6.98466 16.5027C7.096 16.6333 7.418 16.7973 7.48533 17.0693C7.55266 17.3407 7.43866 18.1667 7.23733 18.3407C7.03466 18.5153 6.96133 19.036 6.96133 19.036C6.96133 19.036 7.03266 19.2313 7.27133 19.1187C7.47733 19.0227 7.78866 18.7413 8.00066 18.5847V14.3373H8Z" fill="#5C913B"/>
<path d="M8.17867 11.6087C8.112 11.6193 8.054 11.6167 8 11.616V9.38602C8.16933 9.42935 8.34133 9.59735 8.47133 9.87668C8.62733 10.216 8.874 9.92068 8.964 10.126C9.05333 10.3313 9.54733 10.6313 9.30067 10.6207C9.05333 10.6107 8.80667 10.626 8.74 10.9233C8.672 11.222 8.852 11.4527 8.672 11.4753C8.492 11.4973 8.42533 11.57 8.17867 11.6087ZM9.90533 15.314C9.61467 15.2647 9.666 15.2987 9.48667 14.9147C9.308 14.53 9.19933 14.4193 8.796 14.4773C8.39267 14.5353 8.40733 14.568 8.29533 14.3687C8.24733 14.2833 8.13467 14.314 8 14.3893V18.636C8.06 18.56 8.11333 18.4953 8.152 18.458C8.48867 18.14 8.816 17.774 9.12933 17.3607C9.44267 16.9467 9.32933 16.7447 9.486 16.3733C9.64333 16.0013 9.84667 15.962 10.1153 15.61C10.3853 15.2567 10.1967 15.3647 9.90533 15.314ZM16 10.4873V6.27802C15.9733 6.28068 15.9547 6.28602 15.9267 6.28802C15.7873 6.29535 15.6053 6.37802 15.4073 6.50135C15.3913 6.49802 15.3767 6.49068 15.3607 6.48735C14.7633 6.37068 14.486 7.29068 14.0013 7.25535C13.5153 7.22002 12.868 7.02602 12.4467 7.59802C12.026 8.16935 11.9287 8.61802 12.4467 8.46068C12.9647 8.30335 13.3213 7.51068 13.58 7.73468C13.8387 7.95868 13.7733 8.21535 13.1587 8.47135C12.544 8.72802 11.88 9.01602 11.524 9.11135C11.168 9.20668 11.0873 9.46735 11.3293 9.65935C11.572 9.85135 11.1833 9.97335 10.7787 10.3393C10.374 10.704 10.876 10.6807 11.216 10.8093C11.556 10.938 11.8147 10.594 11.9607 10.188C12.1053 9.78268 12.7327 9.17402 12.994 9.15868C13.2553 9.14335 13.2553 9.29002 13.206 9.56002C13.1973 9.60735 13.2067 9.62868 13.2133 9.65202C13.1 10.012 13.0067 10.3387 12.97 10.5227C12.9527 10.6127 12.9493 10.7567 12.952 10.9193C12.8947 10.922 12.83 10.9333 12.7867 10.92C12.4947 10.834 11.8307 10.7733 11.6527 10.9487C11.4747 11.1253 11.378 11.2833 11.1673 11.4307C10.956 11.5767 10.0987 12.2467 10.0827 12.82C10.066 13.3927 10.05 14.04 10.39 13.9673C10.73 13.8947 11.556 13.4167 11.8147 13.1087C12.0727 12.8 12.4287 12.7607 12.5427 13.0047C12.656 13.2507 12.5747 13.4373 12.4627 13.9073C12.3487 14.3793 12.536 14.5493 12.7167 14.886C12.8987 15.222 13.044 15.4027 13.044 15.6787C13.044 15.9533 13.3033 16.1607 13.6907 15.5967C13.816 15.4167 13.9353 15.1927 14.048 14.9587C14.3207 14.646 14.56 14.3433 14.5533 14.228C14.5427 14.0407 14.5393 13.9387 14.5373 13.812L14.598 13.6653C14.6827 13.47 14.7587 13.168 14.8393 12.8953C14.844 12.8887 14.848 12.884 14.8527 12.8793C15.0107 12.6547 14.976 12.644 15.2393 12.3753C15.4153 12.1953 15.4087 12.034 15.382 11.9233C15.452 11.8067 15.4713 11.7367 15.36 11.7667L15.3493 11.7693C15.348 11.7693 15.346 11.782 15.3453 11.7787C15.33 11.6793 15.208 11.7807 15.0113 11.8773C14.822 11.8827 14.634 11.8333 14.566 11.632C14.4773 11.368 14.1647 10.968 14.14 10.7413C14.142 10.714 14.1433 10.69 14.1467 10.6587C14.156 10.6347 14.1687 10.6147 14.1927 10.6C14.218 10.5853 14.2427 10.58 14.2673 10.5767C14.2947 10.6507 14.3173 10.7627 14.3247 10.886C14.342 11.204 14.5873 11.0167 14.5873 11.218C14.5873 11.42 14.9407 11.546 15.028 11.5833C15.0527 11.594 15.0907 11.5653 15.134 11.518C15.1547 11.5253 15.174 11.54 15.196 11.5427C15.3907 11.5633 15.8107 10.8867 15.9407 10.7667C16.0087 10.7033 16.01 10.5873 15.9627 10.504L16 10.4873Z" fill="#77B255"/>
<path d="M18.4227 13.4807C18.3873 13.774 18.5453 13.6147 18.8267 13.9507C19.1087 14.2893 18.7573 14.2133 18.634 14.1613C18.5107 14.108 18.3873 14.074 18.248 13.816C18.106 13.5553 18.248 13.3527 18.248 13.1313C18.248 13.1313 18.4587 13.1873 18.4227 13.4807ZM18.664 12.88C18.9233 12.9907 18.74 12.5587 18.8267 12.3193C18.9147 12.082 19.0373 12.074 19.1967 12.0773C19.354 12.0787 19.478 11.95 19.584 11.818C19.6887 11.6853 19.8827 11.5153 19.8653 11.3293C19.848 11.1433 19.796 11.008 19.724 10.7673C19.654 10.5273 19.9347 10.522 20.0587 10.2933C20.1813 10.0647 20.0587 10.2933 20.3393 10.288C20.6207 10.2827 20.498 10.2493 20.55 10.1427C20.6033 10.0367 20.6387 9.92468 20.586 9.68934C20.534 9.45401 20.3393 9.62268 20.146 9.57134C19.9533 9.52001 20.2167 9.28801 20.234 9.05134C20.2513 8.81401 20.4987 8.94134 20.6747 8.96801C20.85 8.99401 20.9027 9.29068 20.9553 9.36601C21.0093 9.44068 21.552 9.12268 21.694 8.93868C21.8347 8.75534 21.57 8.74468 21.6413 8.67001C21.712 8.59601 21.22 8.44534 21.0247 8.35734C20.832 8.26868 20.3393 8.11268 20.146 7.92468C19.9533 7.73601 19.2153 7.64068 19.0207 7.70001C18.8267 7.75734 18.7033 7.60468 18.6167 7.42934C18.5293 7.25468 18.1593 7.23134 18.054 7.11801C17.9487 7.00468 17.8433 7.20268 17.7013 7.22468C17.5613 7.24801 17.5087 7.25334 17.332 7.08534C17.1567 6.91734 17.3853 6.83801 17.14 6.67134C16.9033 6.51268 16.598 6.55001 16 6.27734V10.4867C16.1047 10.496 16.206 10.5107 16.2427 10.5207C16.33 10.544 16.5413 10.9027 16.5413 11.0433C16.5413 11.184 16.6467 11.5953 16.7353 11.84C16.8227 12.084 17.0153 12.1773 17.1927 12.3853C17.3687 12.5933 17.4553 12.4767 17.4553 12.4767C17.4553 12.4767 17.3853 12.114 17.3853 11.8333C17.3853 11.5507 17.596 11.366 17.596 11.366C17.596 11.366 17.9293 11.738 17.948 11.8227C17.9653 11.908 18.2287 12.26 18.2473 12.4067C18.2647 12.5527 18.4053 12.7707 18.664 12.88ZM20.0587 11.5013C20.1813 11.5547 20.7093 11.6153 20.428 11.2787C20.146 10.9413 20.3573 11.0793 20.3927 10.7867C20.428 10.4933 20.2167 10.4373 20.2167 10.4373C20.2167 10.6587 20.076 10.8627 20.2167 11.1213C20.3567 11.3813 19.9347 11.448 20.0587 11.5013ZM21.3947 15.082C21.3073 14.9373 21.114 14.8253 20.9027 14.7747C20.6927 14.724 20.7093 14.4547 20.4987 14.4193C20.288 14.3827 20.136 14.16 20.0413 14.078C19.8333 13.9007 19.9707 14.2173 20.0413 14.544C20.112 14.8693 20.3753 14.708 20.6207 14.9347C20.8667 15.1613 20.8853 14.9453 21.114 15.0873C21.342 15.228 21.4307 15.434 21.65 15.4727C21.8693 15.512 21.4833 15.2267 21.3947 15.082ZM19.336 14.1273C19.5107 14.3953 19.442 14.156 19.672 14.1167C19.9007 14.0773 19.478 13.7427 19.3373 13.584C19.1967 13.4253 19.0573 13.3833 18.934 13.6167C18.794 13.8827 19.162 13.8593 19.336 14.1273ZM20.938 15.8467C20.8493 15.6213 20.5927 15.3713 20.488 15.24C20.382 15.1113 20.2167 15.032 20.076 15.054C19.9347 15.0747 19.8473 14.9927 19.7773 14.8133C19.7067 14.636 19.584 14.658 19.478 14.6507C19.3733 14.6427 18.9507 14.73 18.704 14.804C18.4587 14.8793 18.346 14.972 18.1853 15.1087C17.9307 15.322 18.072 15.1787 18.1853 15.3913C18.2973 15.6033 18.0607 16.102 18.0433 16.42C18.0253 16.738 18.494 16.4407 18.6693 16.446C18.8453 16.454 18.7933 16.32 18.9333 16.2367C19.0747 16.1533 19.166 16.1507 19.3193 16.3513C19.4747 16.5547 19.6773 16.7587 19.6773 16.94C19.6773 17.12 20.2333 17.5713 20.4447 17.508C20.6553 17.4427 20.7787 17.236 20.972 17.0847C21.166 16.9347 21.096 16.5353 21.148 16.306C21.202 16.0767 21.0247 16.07 20.938 15.8467Z" fill="#5C913B"/>
</svg>
